<svg id="Capa_1" data-name="Capa 1" xmlns="http://www.w3.org/2000/svg" viewBox="0 0 1920 656">
  <defs>
    <style>.cls-1{fill:#a30000;}.cls-2{fill:#fff;}.cls-3{fill:#999;}</style>
  </defs>
  <title>Alfatec Sistemas | Consultoría, desarrollo y mantenimiento TI</title>
  <path class="cls-1" d="M635,330.36c0,165.57-134.24,299.81-299.81,299.81S35.4,495.93,35.4,330.36,169.65,30.59,335.15,30.59,635,164.8,635,330.36"></path>
  <path class="cls-2" d="M457.47,320.44l86.85-140.8H471.68s-50.94,89.29-50.35,88.77c0,0,0,.45,0,1A150.81,150.81,0,0,0,133,331.12c0,83.27,71.61,150.8,154.84,150.8,61,0,103.66-36.21,141.3-88.32v.88l43,67.4h72.57Zm-187.27,97c-49.06-7.15-79.71-57.19-70.9-104.33,9.37-49.47,63.61-79.48,111-65C349,260,365.75,298.67,384.79,330.6c-25.45,46.2-52.85,95.8-114.59,86.87"></path>
  <path d="M856.7,244.11h48V435.42h-48V415.2q-14,13.36-28.17,19.26a78.79,78.79,0,0,1-30.65,5.87q-37.09,0-64.12-28.73t-27-71.47q0-44.27,26.12-72.62t63.58-28.33a80.53,80.53,0,0,1,32.29,6.54,88.38,88.38,0,0,1,28,19.52Zm-50.45,39.36c-14.84,0-27.15,5.31-37,15.77s-14.67,23.94-14.67,40.38,5,30.08,14.94,40.74,22.27,16,36.92,16c15,0,27.54-5.19,37.48-15.7s14.9-24.21,14.9-41.26c0-16.65-5-30.12-14.9-40.45s-22.48-15.49-37.68-15.49"></path>
  <rect x="947.96" y="170.28" width="48.02" height="265.16"></rect>
  <path d="M1016.74,244.11h17c.14-25.08.59-39.91,1.28-44.47q1.88-15.84,13.29-25c7.51-6.19,18.21-9.24,32.09-9.24,9.9,0,21.22,2.29,33.77,6.85v36.59c-6.92-2-12.65-3-17.1-3-5.59,0-9.71,1.16-12.31,3.5-1.85,1.76-2.79,5.41-2.79,10.93l-.24,23.87h30.46v40.67h-30.46v150.6h-48V284.77h-17Z"></path>
  <path d="M1281.53,244.11h48V435.42h-48V415.2q-14,13.36-28.16,19.26a79.12,79.12,0,0,1-30.69,5.87q-37.09,0-64.11-28.73t-27-71.47q0-44.27,26.2-72.62t63.52-28.33a80.67,80.67,0,0,1,32.31,6.54,88.58,88.58,0,0,1,28,19.52ZM1231,283.47c-14.8,0-27.12,5.31-37,15.77s-14.68,23.94-14.68,40.38,5,30.08,14.94,40.74,22.29,16,36.92,16c15.06,0,27.57-5.19,37.51-15.7s14.87-24.21,14.87-41.26c0-16.65-5-30.12-14.87-40.45s-22.5-15.49-37.73-15.49"></path>
  <polygon class="cls-3" points="1383.86 173.64 1431.85 173.64 1431.85 244.13 1460.31 244.13 1460.31 285.44 1431.85 285.44 1431.85 435.42 1383.86 435.42 1383.86 285.44 1359.21 285.44 1359.21 244.13 1383.86 244.13 1383.86 173.64"></polygon>
  <path class="cls-3" d="M1677.68,353.62H1523.43c2.27,13.69,8.15,24.49,17.88,32.47s22,12.08,37,12.08q27,0,46.26-18.85l40.48,19q-15.17,21.49-36.26,31.71t-50.12,10.3q-45,0-73.28-28.35t-28.3-71.12q0-43.84,28.18-72.76T1576,239.18q45.19,0,73.56,28.92t28.3,76.38Zm-48.05-37.73a48.26,48.26,0,0,0-18.73-26.05q-14-10-32.5-10-20.11,0-35.27,11.23c-6.34,4.71-12.15,13-17.55,24.82Z"></path>
  <path class="cls-3" d="M1903.76,282.83l-40,22c-7.48-7.86-14.94-13.31-22.29-16.39s-15.89-4.55-25.77-4.55c-18,0-32.45,5.35-43.55,16s-16.67,24.46-16.67,41.19c0,16.25,5.35,29.58,16.06,39.88s24.68,15.39,42,15.39c21.53,0,38.2-7.29,50.19-22l37.87,25.93q-30.73,40-86.87,40-50.45,0-79-29.87t-28.56-70a98.34,98.34,0,0,1,52.67-87.94q24.87-13.36,55.65-13.36c18.95,0,36,3.81,51.11,11.37a96.93,96.93,0,0,1,37.14,32.28"></path>
</svg>
