<?xml version="1.0" encoding="UTF-8"?>
<svg viewBox="0 0 54 36" version="1.1" xmlns="http://www.w3.org/2000/svg" xmlns:xlink="http://www.w3.org/1999/xlink">
    <title>logo-header</title>
    <desc>Created with Sketch.</desc>
    <g id="Page-1" stroke="none" stroke-width="1" fill="none" fill-rule="evenodd">
        <g id="logo-header" fill="#EC0044">
            <path d="M26.3155152,5.94562168 C25.9325357,6.97112582 24.9221472,7.61538462 23.8510762,7.61538462 C22.6248998,7.61538462 21.5236135,6.75217079 21.2955506,5.51987225 C21.097703,4.45037337 21.579386,3.33573371 22.5113405,2.78334817 C23.4478273,2.22828856 24.6911887,2.32207186 25.5346374,3.01306313 C26.381863,3.70711048 26.7008237,4.91406907 26.3155152,5.94562168 Z M48.5866196,7.61538462 C47.3605174,7.61538462 46.2591153,6.75223785 46.0310545,5.5198805 C45.8331458,4.45038582 46.3148872,3.33575055 47.2468332,2.78336719 C48.1833744,2.22830977 49.4266614,2.32202903 50.2701024,3.01308125 C51.1173203,3.70718953 51.436341,4.9140797 51.050973,5.94562826 C50.6679971,6.97112836 49.6577437,7.61538462 48.5866196,7.61538462 Z M4.06440054,8.50016415 L4.06446397,3.25192276 C4.06446397,2.42168606 3.99710324,1.59125972 4.54524961,0.888649623 C5.52312193,-0.364733458 7.5876459,-0.277563028 8.45198177,1.05717491 C8.8992139,1.74783778 8.81580583,2.56125989 8.81580583,3.34263311 C8.81593269,5.06164156 8.81593269,6.78065 8.81593269,8.49965845 C9.7069084,8.49858383 10.5978841,8.497446 11.4889232,8.49637139 C11.9666009,8.49637139 12.4445957,8.53012701 12.9168185,8.6027585 C14.7454531,8.88399218 16.4148195,9.78180335 17.615071,11.1908163 C18.9411006,12.7473679 19.6415381,14.7904051 19.815585,16.806324 C20.1439527,20.6104693 18.5736611,24.7641181 14.9286337,26.4305335 C13.3178115,27.1668993 11.5343378,27.3675366 9.77883596,27.3444008 C7.85093629,27.3189892 5.99762817,26.3273071 4.95582025,24.7038131 C4.27587011,23.6441772 4.06446397,22.4648163 4.06446397,21.2305235 L4.06440054,13.022786 L2.5123763,13.0239238 C1.75548777,12.9984491 1.01432944,12.8617198 0.519399317,12.2531704 C-0.478516308,11.0262734 0.011656701,9.04663867 1.56038268,8.59093771 C1.75504378,8.53360372 1.9576334,8.50895073 2.16237958,8.4994056 L4.06440054,8.50016415 Z M8.81593269,13.022786 L8.81593269,13.0213321 L8.81732811,21.7634705 C8.85062791,22.3850418 9.35532597,22.8394785 9.97153078,22.8561035 C10.4057601,22.8677346 10.8559734,22.8596434 11.2876656,22.8212732 C12.8469207,22.6828372 14.1185923,21.7261749 14.6751112,20.2597016 C14.8064076,19.9135484 14.7501468,20.0617823 14.693886,20.2100163 C14.6440314,20.3414989 14.5941134,20.4729183 14.6751112,20.2597016 C14.8046316,19.9182261 14.8941287,19.562591 14.9520387,19.2024045 C15.350558,16.7247163 14.5039186,13.0285384 11.4038026,13.0219642 C10.6474215,13.0203207 9.89268955,13.0225331 9.13630845,13.0228492 C9.02112287,13.0229124 8.81593269,13.022786 8.81593269,13.022786 Z M33.467266,27.5114628 L33.467266,33.1856946 C33.467266,33.6748885 33.4790245,34.1491683 33.2751668,34.6115674 C32.846874,35.5833196 31.7735216,36.1169397 30.7261148,35.9782895 C29.6449661,35.8351524 28.7749602,34.9732966 28.6838313,33.8915847 L28.6838313,27.5115892 L26.0377712,27.5114628 C25.2626646,27.5114628 24.4926065,27.488839 23.7651093,27.1769708 C22.0557082,26.4440963 21.6,24.6299523 21.6,22.9459905 L21.6,11.8053759 C21.6,11.4153984 21.6012781,11.0375545 21.7403998,10.6622383 C22.1790453,9.47852946 23.5620185,8.8869594 24.757302,9.27813755 C25.7137717,9.59120646 26.340043,10.4654485 26.3544855,11.4542003 L26.3544216,16.1951025 C26.3544216,18.4536349 26.3551246,20.7127993 26.3542938,22.9713317 L28.6838313,22.9713317 L28.6801248,14.3891739 C28.6846621,13.4457331 28.9003423,12.5159425 29.3494683,11.6806918 C29.8990533,10.6583834 30.7708485,9.81953063 31.8135263,9.2945051 C32.770635,8.81264188 33.7985507,8.64662815 34.8626368,8.65408518 C37.3499563,8.65421157 39.922142,9.2539338 41.768492,10.9935074 C43.5126576,12.6368348 44.3987037,15.0226423 44.5642821,17.3646556 C44.7373375,19.811952 44.1482591,22.4109169 42.6546659,24.4017546 C41.2893945,26.2214597 39.2019939,27.2933131 36.9299711,27.4669102 C36.6255266,27.4901661 36.3006963,27.5041322 35.9646825,27.5110837 C35.8922779,27.5125372 33.467266,27.5114628 33.467266,27.5114628 Z M33.4672021,14.8322985 L33.467266,22.9713317 L35.685161,22.9720269 C36.0067322,22.9721533 36.3302844,22.9822013 36.6495549,22.9372063 C37.2801079,22.8483539 37.8499509,22.5661874 38.3018248,22.1225573 C39.375241,21.0689041 39.7416097,19.4755641 39.7416097,18.0268779 C39.7416097,17.6143398 39.7156003,17.2010433 39.6495862,16.7934976 C39.4068102,15.2962143 38.5204446,13.9140094 37.02781,13.3935971 C36.43707,13.1875808 35.8136106,13.1514332 35.1924517,13.145872 C34.7286275,13.1417011 34.2563678,13.0937992 33.8742784,13.4124924 C33.4239382,13.7881246 33.4672021,14.3155515 33.4672021,14.8322985 Z M47.0471964,9.63546314 C47.9462383,8.79093068 49.4369601,8.78606579 50.335369,9.63356773 C51.1299521,10.3830769 51.0456887,11.3758937 51.0456887,12.3579699 L51.0470182,22.803523 C51.5335429,22.8071875 52.0835659,22.769911 52.5502118,22.9303892 C53.1413219,23.1337038 53.61911,23.5931517 53.8603781,24.1669561 C54.3813426,25.4061766 53.3452381,26.9098702 52.3880157,27.2038486 C52.2199321,27.2555302 51.9325755,27.3287563 51.7187198,27.332168 C51.0514498,27.3427823 50.4600231,27.3617364 49.8354862,27.3223119 C48.7030897,27.2507917 47.6495121,26.7425685 47.028014,25.7729388 C46.3471959,24.7107499 46.3354839,23.4630632 46.3354839,22.2490518 L46.3354839,11.3904252 C46.3368767,10.7248197 46.5528215,10.0999023 47.0471964,9.63546314 Z" id="path-1"></path>
        </g>
    </g>
</svg>
