<svg xmlns="http://www.w3.org/2000/svg" width="138" height="56" viewBox="0 0 138 56">
    <g fill="none" fill-rule="evenodd">
        <g fill="#14202E">
            <path d="M10.775 13.916a3.488 3.488 0 0 0-2.79-1.48 2.682 2.682 0 0 0-1.227.237c-.391.172-.639.566-.625.993a.917.917 0 0 0 .552.91c.49.24 1.005.428 1.534.563l1.982.553a7.553 7.553 0 0 1 1.966.866 4.49 4.49 0 0 1 1.476 1.5c.404.746.576 1.595.494 2.44a4.474 4.474 0 0 1-.809 2.516 5.164 5.164 0 0 1-1.797 1.534 7.395 7.395 0 0 1-2.404.744c-.862.123-1.733.165-2.603.127a12.563 12.563 0 0 1-3.358-.633 6.31 6.31 0 0 1-2.81-1.826l3.14-3.176a4.946 4.946 0 0 0 1.487 1.346 4.115 4.115 0 0 0 1.917.534 4.563 4.563 0 0 0 1.533-.185.909.909 0 0 0 .767-.859 1.001 1.001 0 0 0-.563-.962c-.485-.262-1-.463-1.534-.599l-1.978-.552a8.274 8.274 0 0 1-1.966-.832 4.191 4.191 0 0 1-1.476-1.47 4.264 4.264 0 0 1-.495-2.443 4.87 4.87 0 0 1 .687-2.4A5.054 5.054 0 0 1 3.45 9.757a6.549 6.549 0 0 1 2.193-.867 9.877 9.877 0 0 1 2.476-.196c1.077.054 2.142.258 3.162.606a5.91 5.91 0 0 1 2.65 1.769l-3.155 2.846zM17.698.387h1.633v32.867h-1.633zM23.494 9.064h4.73v2.17h.066a4 4 0 0 1 .655-.92 4.8 4.8 0 0 1 1.02-.82 5.836 5.836 0 0 1 1.346-.592 5.628 5.628 0 0 1 1.64-.23 6.785 6.785 0 0 1 3.021.576 4.37 4.37 0 0 1 1.79 1.595c.447.735.743 1.551.87 2.401.159.99.236 1.99.23 2.992v8.822h-4.925v-7.84c0-.46-.017-.937-.05-1.43a4.51 4.51 0 0 0-.295-1.366 2.12 2.12 0 0 0-2.216-1.412 3.038 3.038 0 0 0-1.534.346 2.35 2.35 0 0 0-.904.92 3.76 3.76 0 0 0-.41 1.297c-.068.5-.1 1.005-.1 1.51v7.956h-4.934V9.064z"/>
            <path fill-rule="nonzero" d="M47.61 16.953c0 1.032.414 2.02 1.15 2.743.362.362.785.656 1.25.87.49.224 1.022.337 1.56.33a3.69 3.69 0 0 0 1.533-.33c.47-.21.9-.506 1.265-.87a3.879 3.879 0 0 0 0-5.489 4.282 4.282 0 0 0-1.265-.87 3.69 3.69 0 0 0-1.533-.33 3.651 3.651 0 0 0-1.56.33 4.34 4.34 0 0 0-1.265.855 3.837 3.837 0 0 0-1.15 2.746l.015.015zm12.4 6.724c0 3.025-.766 5.327-2.3 6.904-1.532 1.578-3.848 2.362-6.945 2.352a18.704 18.704 0 0 1-4.217-.476 9.504 9.504 0 0 1-3.81-1.856l2.725-4.074a10.307 10.307 0 0 0 2.415 1.511 6.79 6.79 0 0 0 2.776.56c1.51 0 2.622-.367 3.335-1.1a3.871 3.871 0 0 0 1.065-2.812v-1.534h-.065a4.646 4.646 0 0 1-2.089 1.607c-.758.3-1.565.462-2.38.476a8.21 8.21 0 0 1-3.22-.61 7.16 7.16 0 0 1-2.45-1.707 7.607 7.607 0 0 1-1.595-2.612 9.498 9.498 0 0 1-.56-3.318c0-1.05.173-2.093.51-3.088a8.44 8.44 0 0 1 1.446-2.662 7.246 7.246 0 0 1 2.3-1.856 6.479 6.479 0 0 1 3.066-.706 7.43 7.43 0 0 1 3.481.821 5.75 5.75 0 0 1 1.18.805c.296.26.561.551.79.871h.065v-2.11h4.535l-.057 14.614z"/>
            <path d="M80.27 25.039h-4.73v-2.171h-.066c-.192.33-.418.638-.674.92a4.417 4.417 0 0 1-1 .821 5.817 5.817 0 0 1-1.35.595 5.632 5.632 0 0 1-1.645.23 6.896 6.896 0 0 1-3.04-.575 4.34 4.34 0 0 1-1.805-1.596 6.235 6.235 0 0 1-.855-2.397 19.53 19.53 0 0 1-.214-2.992V9.052h4.925v7.825c0 .46.017.937.05 1.43.027.468.127.929.296 1.366a2.12 2.12 0 0 0 2.223 1.423 3.042 3.042 0 0 0 1.533-.345c.382-.217.695-.536.905-.92a3.76 3.76 0 0 0 .41-1.297c.067-.501.1-1.006.1-1.512V9.064h4.937v15.975zM84.743.192h4.926v24.847h-4.926z"/>
            <path fill-rule="nonzero" d="M102.952 18.027c-.383 0-.836 0-1.395.05a7.084 7.084 0 0 0-1.61.28c-.482.136-.93.371-1.315.69-.369.321-.57.794-.545 1.282-.024.55.276 1.065.767 1.315a3.157 3.157 0 0 0 1.58.438c.471.001.941-.065 1.395-.196.427-.121.832-.31 1.2-.56.348-.237.635-.552.839-.92.215-.405.322-.858.31-1.316v-1.063h-1.226zm1.215 4.987h-.065a4.635 4.635 0 0 1-2.185 1.84 7.51 7.51 0 0 1-2.875.56 7.406 7.406 0 0 1-2.15-.31 5.423 5.423 0 0 1-1.825-.92 4.525 4.525 0 0 1-1.25-1.535 4.716 4.716 0 0 1-.46-2.136 4.9 4.9 0 0 1 .51-2.332 4.564 4.564 0 0 1 1.38-1.577 6.852 6.852 0 0 1 1.986-.97c.751-.232 1.52-.403 2.3-.51a22.22 22.22 0 0 1 2.395-.196c.8-.02 1.539-.032 2.216-.034a2.567 2.567 0 0 0-.935-2.087 3.376 3.376 0 0 0-2.216-.767 4.824 4.824 0 0 0-2.216.51 6.057 6.057 0 0 0-1.79 1.396l-2.626-2.685a9.034 9.034 0 0 1 3.22-1.917 11.494 11.494 0 0 1 3.81-.641 9.961 9.961 0 0 1 3.566.54 5.187 5.187 0 0 1 2.235 1.596c.578.76.972 1.644 1.15 2.582.232 1.163.343 2.347.33 3.532v8.086h-4.505v-2.025z"/>
            <path d="M112.7 9.064h4.926v2.562h.065a6.056 6.056 0 0 1 1.87-2.217 4.732 4.732 0 0 1 2.726-.74c.284 0 .569.011.855.034.267.018.531.062.79.13v4.503a6.743 6.743 0 0 0-2.1-.326 5.23 5.23 0 0 0-2.236.384c-.519.237-.958.62-1.265 1.1a4.19 4.19 0 0 0-.575 1.692 16.445 16.445 0 0 0-.13 2.167v6.674H112.7V9.064z"/>
        </g>
        <g fill="#6DB8D9">
            <path fill-rule="nonzero" d="M2.522 45.744h1.254v9.658H2.522v-9.658zm-.314-3.836a.928.928 0 1 1 1.856.02.928.928 0 0 1-1.856-.02z"/>
            <path d="M12.052 46.875h-2.76v6.294c-.023.37.106.733.357 1.005.264.248.619.377.98.357.244 0 .486-.031.722-.092.24-.062.474-.142.701-.242l.104 1.128a7.46 7.46 0 0 1-.817.23c-.268.065-.541.1-.816.104a3.004 3.004 0 0 1-1.15-.2 2.035 2.035 0 0 1-.767-.533 2.087 2.087 0 0 1-.43-.767 3.339 3.339 0 0 1-.134-.974v-6.31H5.953v-1.128H8.05V42.96h1.254v2.78h2.76l-.012 1.136zM27.807 53.982a4.52 4.52 0 0 1-1.61 1.266 4.651 4.651 0 0 1-1.943.407 5.463 5.463 0 0 1-2.047-.384 4.646 4.646 0 0 1-1.61-1.055 4.856 4.856 0 0 1-1.047-1.61 5.71 5.71 0 0 1 0-4.078 4.872 4.872 0 0 1 1.047-1.61 4.65 4.65 0 0 1 1.61-1.056 5.46 5.46 0 0 1 2.047-.383 4.483 4.483 0 0 1 1.974.437c.615.301 1.165.72 1.617 1.235l-1.004.767a4.347 4.347 0 0 0-1.192-.95 2.935 2.935 0 0 0-1.4-.346 3.889 3.889 0 0 0-1.586.314c-.457.198-.87.486-1.212.848-.339.36-.6.788-.766 1.254a4.651 4.651 0 0 0 0 3.069 3.594 3.594 0 0 0 1.978 2.102 3.893 3.893 0 0 0 1.587.314c.509 0 1.01-.132 1.453-.383a3.788 3.788 0 0 0 1.15-.97l.954.812z"/>
            <path fill-rule="nonzero" d="M34.765 50.553a11.01 11.01 0 0 0-1.534.104c-.46.06-.909.18-1.338.357-.365.144-.69.373-.95.667-.243.294-.37.666-.357 1.047-.002.269.067.534.2.767.127.224.302.417.513.564.214.149.451.262.702.334.248.075.507.113.766.115.565.02 1.128-.08 1.653-.292.4-.172.754-.434 1.035-.767.256-.31.438-.675.532-1.066.097-.393.146-.796.146-1.2v-.63h-1.368zm2.507.794v1.278c0 .378.01.727.03 1.047.013.32.03.619.054.897.023.279.055.558.096.836h-1.17a9.046 9.046 0 0 1-.126-1.568h-.042a3.524 3.524 0 0 1-1.346 1.38 4.215 4.215 0 0 1-2.039.442c-.416 0-.831-.053-1.234-.158A3.23 3.23 0 0 1 30.41 55a2.582 2.582 0 0 1-1.085-2.206 2.586 2.586 0 0 1 .564-1.756 3.515 3.515 0 0 1 1.387-.97 6.594 6.594 0 0 1 1.756-.419 15.435 15.435 0 0 1 1.64-.092h1.465v-.587c0-.836-.256-1.435-.767-1.799a3.299 3.299 0 0 0-1.943-.544 4.407 4.407 0 0 0-2.948 1.085l-.732-.859a4.465 4.465 0 0 1 1.713-1.013 6.13 6.13 0 0 1 1.963-.345c1-.052 1.986.24 2.798.825.698.55 1.047 1.445 1.047 2.685l.004 2.343z"/>
            <path d="M40.633 48.463c0-.182-.006-.401-.019-.66a40.074 40.074 0 0 1-.03-.767c0-.256-.01-.504-.031-.744a3.9 3.9 0 0 1-.02-.533h1.25c.016.363.026.712.031 1.047-.004.217.014.435.054.648h.061a3.386 3.386 0 0 1 1.254-1.37c.61-.39 1.322-.59 2.047-.574a4.123 4.123 0 0 1 1.84.356c.444.213.829.533 1.119.932.278.399.47.85.563 1.327.105.505.158 1.02.158 1.535v5.753h-1.254v-5.696a6.183 6.183 0 0 0-.103-1.15 3.039 3.039 0 0 0-.384-.994 1.917 1.917 0 0 0-.732-.702 2.51 2.51 0 0 0-1.223-.26c-.447-.002-.89.08-1.307.241a2.814 2.814 0 0 0-1.066.733c-.317.36-.558.78-.709 1.235a5.254 5.254 0 0 0-.26 1.745v4.829h-1.239v-6.931z"/>
            <path fill-rule="nonzero" d="M58.524 50.576a3.81 3.81 0 0 0 .314 1.535c.202.47.493.896.859 1.254.367.36.799.647 1.272.848.502.212 1.042.319 1.587.314.545.007 1.086-.1 1.587-.314a3.602 3.602 0 0 0 1.978-2.102 4.651 4.651 0 0 0 0-3.069 3.602 3.602 0 0 0-1.978-2.102 3.889 3.889 0 0 0-1.587-.314 3.985 3.985 0 0 0-1.587.314c-.473.2-.905.488-1.272.848a3.924 3.924 0 0 0-.86 1.254 3.81 3.81 0 0 0-.313 1.534zM57.397 39.6h1.253v7.84h.042c.191-.33.44-.623.732-.867.29-.242.61-.446.951-.606a4.748 4.748 0 0 1 1.077-.357 5.555 5.555 0 0 1 1.108-.115 5.364 5.364 0 0 1 2.036.384 4.724 4.724 0 0 1 2.664 2.685 5.71 5.71 0 0 1 0 4.077 4.728 4.728 0 0 1-2.664 2.685 5.387 5.387 0 0 1-2.036.383 5.551 5.551 0 0 1-1.108-.115 4.767 4.767 0 0 1-1.077-.356 4.381 4.381 0 0 1-.958-.656 3.244 3.244 0 0 1-.732-.867h-.035v1.695h-1.253V39.6zM77.997 49.76a2.855 2.855 0 0 0-.26-1.213 3.253 3.253 0 0 0-1.776-1.672 3.448 3.448 0 0 0-1.307-.25 3.195 3.195 0 0 0-1.702.419 3.727 3.727 0 0 0-1.077.963c-.246.318-.44.672-.575 1.05a2.786 2.786 0 0 0-.169.702h6.866zm.962 3.835a4.217 4.217 0 0 1-1.805 1.588 5.747 5.747 0 0 1-2.373.48 5.15 5.15 0 0 1-2.005-.384c-.579-.242-1.101-.6-1.533-1.055a4.634 4.634 0 0 1-.993-1.61 5.89 5.89 0 0 1-.345-2.06 5.526 5.526 0 0 1 .356-2.007 4.803 4.803 0 0 1 1.005-1.6 4.719 4.719 0 0 1 1.533-1.065 4.77 4.77 0 0 1 1.943-.384 4.655 4.655 0 0 1 1.955.384c.54.24 1.024.588 1.423 1.024.38.423.675.917.866 1.453.192.53.29 1.09.291 1.654v.878h-8.134c.012.343.064.683.157 1.013a3.635 3.635 0 0 0 1.694 2.205c.553.3 1.177.444 1.806.418a4.035 4.035 0 0 0 1.867-.445 3.355 3.355 0 0 0 1.38-1.254l.912.767zM96.052 50.576a3.81 3.81 0 0 0-.314-1.534 3.94 3.94 0 0 0-.855-1.254 4.128 4.128 0 0 0-1.277-.848 3.992 3.992 0 0 0-1.587-.314 3.896 3.896 0 0 0-1.587.314 3.594 3.594 0 0 0-1.978 2.102 4.651 4.651 0 0 0 0 3.069c.166.466.427.893.767 1.254.342.361.754.65 1.211.848a3.889 3.889 0 0 0 1.587.314 3.985 3.985 0 0 0 1.587-.314 4.12 4.12 0 0 0 1.277-.848 3.932 3.932 0 0 0 1.169-2.789zm-.127 3.138h-.042a3.26 3.26 0 0 1-.732.867c-.29.242-.61.446-.95.606a4.774 4.774 0 0 1-1.078.357 5.582 5.582 0 0 1-3.155-.269 4.653 4.653 0 0 1-1.61-1.055 4.875 4.875 0 0 1-1.046-1.61 5.714 5.714 0 0 1 0-4.078 4.875 4.875 0 0 1 1.046-1.61 4.661 4.661 0 0 1 1.61-1.056 5.555 5.555 0 0 1 3.155-.268c.372.075.734.195 1.077.357.342.16.661.364.951.606.293.243.54.537.732.866h.042V39.6h1.254v15.806h-1.254v-1.691zM100.962 50.576a4.47 4.47 0 0 0 .261 1.535 3.594 3.594 0 0 0 1.978 2.102 4.18 4.18 0 0 0 3.178 0 3.598 3.598 0 0 0 1.978-2.102 4.651 4.651 0 0 0 0-3.069 3.594 3.594 0 0 0-1.978-2.102 4.176 4.176 0 0 0-3.178 0 3.684 3.684 0 0 0-1.211.848c-.34.36-.6.788-.767 1.254a4.47 4.47 0 0 0-.26 1.534m-1.254 0a5.392 5.392 0 0 1 .383-2.036 4.883 4.883 0 0 1 1.047-1.611 4.653 4.653 0 0 1 1.61-1.055 5.46 5.46 0 0 1 2.047-.384 5.364 5.364 0 0 1 2.035.384 4.728 4.728 0 0 1 2.683 2.685 5.714 5.714 0 0 1 0 4.077 4.732 4.732 0 0 1-2.683 2.685 5.383 5.383 0 0 1-2.035.384 5.463 5.463 0 0 1-2.047-.384 4.65 4.65 0 0 1-1.61-1.055 4.868 4.868 0 0 1-1.047-1.61 5.392 5.392 0 0 1-.383-2.037"/>
            <path d="M112.666 48.463c0-.182-.007-.401-.02-.66a40.075 40.075 0 0 1-.03-.767c0-.256-.01-.504-.031-.744a3.9 3.9 0 0 1-.02-.533h1.254c.013.363.023.712.031 1.047-.004.217.014.435.054.648h.061a3.386 3.386 0 0 1 1.254-1.37c.61-.39 1.322-.59 2.047-.574a4.123 4.123 0 0 1 1.84.356c.444.213.829.533 1.119.932.278.399.47.85.563 1.327.105.505.158 1.02.158 1.535v5.753h-1.254v-5.696a6.183 6.183 0 0 0-.103-1.15 3.039 3.039 0 0 0-.384-.994 1.917 1.917 0 0 0-.732-.702 2.51 2.51 0 0 0-1.223-.26c-.447-.002-.89.08-1.307.241a2.814 2.814 0 0 0-1.066.733c-.317.36-.558.78-.709 1.235a5.254 5.254 0 0 0-.26 1.745v4.829h-1.254l.012-6.931z"/>
            <path fill-rule="nonzero" d="M131.847 49.76a2.855 2.855 0 0 0-.26-1.213 3.26 3.26 0 0 0-1.775-1.672 3.448 3.448 0 0 0-1.307-.25 3.195 3.195 0 0 0-1.702.419 3.727 3.727 0 0 0-1.077.963c-.242.32-.432.675-.564 1.054a2.786 2.786 0 0 0-.169.702l6.855-.004zm.963 3.835a4.217 4.217 0 0 1-1.806 1.588 5.747 5.747 0 0 1-2.373.48 5.15 5.15 0 0 1-2.005-.384c-.578-.242-1.1-.6-1.533-1.055a4.634 4.634 0 0 1-.993-1.61 5.89 5.89 0 0 1-.345-2.06 5.519 5.519 0 0 1 .357-2.007 4.795 4.795 0 0 1 1.004-1.6 4.715 4.715 0 0 1 1.533-1.065 4.766 4.766 0 0 1 1.944-.384 4.651 4.651 0 0 1 1.955.384c.54.24 1.024.588 1.422 1.024.381.423.676.917.866 1.453.193.53.291 1.09.292 1.654v.878h-8.135c.012.343.065.682.158 1.013a3.639 3.639 0 0 0 1.694 2.205c.554.3 1.18.445 1.81.418a4.035 4.035 0 0 0 1.858-.46 3.351 3.351 0 0 0 1.38-1.254l.917.782z"/>
            <path d="M135.941 54.527a1 1 0 1 1 .292.71.967.967 0 0 1-.292-.71"/>
        </g>
    </g>
</svg>
